<?xml version="1.0" encoding="utf-8"?>
<!-- Generated by IcoMoon.io -->
<!DOCTYPE svg PUBLIC "-//W3C//DTD SVG 1.1//EN" "http://www.w3.org/Graphics/SVG/1.1/DTD/svg11.dtd">
<svg version="1.1" xmlns="http://www.w3.org/2000/svg" xmlns:xlink="http://www.w3.org/1999/xlink" width="500" height="500" viewBox="0 0 500 500">
<path d="M419.472 105.118h-59.82v20l60.34 0.56-0.52 284.32-339.48-0.56 0.52-284.32h59.78v-20h-59.78c-11.32 0-20.52 9.22-20.52 20.56v283.76c0 11.34 9.2 20.56 20.52 20.56h338.96c11.32 0 20.52-9.22 20.52-20.56v-283.76c0-11.34-9.2-20.56-20.52-20.56z"></path>
<path d="M170.3 154.96h20v-94.96h-20z"></path>
<path d="M308.68 154.96h20v-94.96h-20z"></path>
<path d="M140.32 248.62h76.48v-20h-76.48z"></path>
<path d="M283.18 248.62h76.48v-20h-76.48z"></path>
<path d="M140.32 333.72h76.48v-20h-76.48z"></path>
<path d="M283.18 333.72h76.48v-20h-76.48z"></path>
</svg>
